<svg id="Capa_1" enable-background="new 0 0 512 512" height="512" viewBox="0 0 512 512" width="512" xmlns="http://www.w3.org/2000/svg"><g><g><path d="m477.729 127.976-133.729-31.976-88-96c-141.385 0-256 114.615-256 256s114.615 256 256 256 256-114.615 256-256c0-46.641-12.479-90.364-34.271-128.024z" fill="#ffb454"/></g><g><path d="m477.729 127.976-133.729-31.976-88-96v512c141.385 0 256-114.615 256-256 0-46.641-12.479-90.364-34.271-128.024z" fill="#ff8659"/></g><g><path d="m477.724 127.972c-22.105-38.205-53.889-70.246-91.916-92.661-39.189-23.101-84.077-35.311-129.808-35.311v256l221.406-127.829z" fill="#ff6b6b"/></g><g><g><path d="m256 451.75c-107.937 0-195.75-87.813-195.75-195.75s87.813-195.75 195.75-195.75 195.75 87.813 195.75 195.75-87.813 195.75-195.75 195.75z" fill="#ffe278"/></g><g><path d="m256 60.25v391.5c107.937 0 195.75-87.813 195.75-195.75s-87.813-195.75-195.75-195.75z" fill="#ffb454"/></g><path d="m425.486 158.147c-33.893-58.477-97.171-97.897-169.486-97.897v195.75z" fill="#ff8659"/><circle cx="376" cy="256" fill="#ec3d93" r="15"/><circle cx="196" cy="359.923" fill="#8ee26b" r="15"/><circle cx="316" cy="152.077" fill="#00a78e" r="15"/><g><path d="m296 366c-16.542 0-30-13.458-30-30s13.458-30 30-30 30 13.458 30 30-13.458 30-30 30z" fill="#ff6b6b"/></g><g><path d="m166 296c-16.542 0-30-13.458-30-30s13.458-30 30-30 30 13.458 30 30-13.458 30-30 30z" fill="#ff6b6b"/></g></g><g><path d="m206.607 156.606-30 30c-5.858 5.858-15.355 5.858-21.213 0s-5.858-15.355 0-21.213l30-30c5.858-5.858 15.355-5.858 21.213 0s5.858 15.356 0 21.213z" fill="#ff6b6b"/></g></g></svg>